<?xml version="1.0" encoding="utf-8"?>
<!-- Generator: Adobe Illustrator 27.5.0, SVG Export Plug-In . SVG Version: 6.00 Build 0)  -->
<svg version="1.1" xmlns="http://www.w3.org/2000/svg" xmlns:xlink="http://www.w3.org/1999/xlink" x="0px" y="0px"
	 viewBox="0 0 500 500" style="enable-background:new 0 0 500 500;" xml:space="preserve">
<g id="Background_Complete">
	<g>
		<g>
			<g>
				<g>
					<g>
						<g>
							<g>
								<rect x="349.66" y="145.623" style="fill:#EBEBEB;" width="60.791" height="15.544"/>
							</g>
						</g>
					</g>
				</g>
			</g>
		</g>
		<g>
			<g>
				<g>
					<g>
						<g>
							<g>
								<g>
									<path style="fill:#E0E0E0;" d="M384.746,177.539c-0.006-0.006-0.012-0.101-0.019-0.283c-0.005-0.208-0.012-0.47-0.02-0.797
										c-0.011-0.732-0.026-1.752-0.046-3.059c-0.024-2.683-0.06-6.541-0.104-11.405l0.188,0.182
										c-13.88,0.027-35.955,0.07-60.787,0.117c0.137-0.133-0.312,0.299,0.306-0.299V162v0.008v0.016v0.031v0.063v0.125v0.25
										l0,0.499v0.997c0,0.663,0,1.324,0,1.983c0,1.318-0.001,2.625-0.001,3.923c-0.002,2.594-0.003,5.146-0.005,7.645
										l-0.303-0.292c17.31,0.053,32.457,0.099,43.321,0.133c5.411,0.035,9.754,0.064,12.787,0.083
										c1.475,0.016,2.631,0.029,3.458,0.038c0.372,0.008,0.67,0.014,0.904,0.019
										C384.631,177.526,384.739,177.533,384.746,177.539c0.007,0.006-0.089,0.013-0.281,0.019
										c-0.225,0.005-0.51,0.011-0.867,0.019c-0.811,0.009-1.945,0.022-3.392,0.039c-3.017,0.02-7.335,0.048-12.717,0.083
										c-10.917,0.033-26.138,0.08-43.532,0.133l-0.303,0.001l0-0.294c-0.002-2.499-0.003-5.051-0.005-7.645
										c0-1.297-0.001-2.605-0.001-3.923c0-0.659,0-1.32,0-1.983v-0.997v-0.499v-0.25v-0.125v-0.063v-0.031v-0.016V162v-0.004
										c0.62-0.599,0.174-0.166,0.314-0.3c24.832,0.048,46.907,0.09,60.787,0.117l0.19,0l-0.002,0.182
										c-0.044,4.91-0.079,8.804-0.104,11.513c-0.019,1.29-0.035,2.297-0.046,3.018c-0.008,0.314-0.015,0.566-0.02,0.765
										C384.758,177.462,384.752,177.545,384.746,177.539z"/>
								</g>
							</g>
						</g>
					</g>
				</g>
			</g>
		</g>
	</g>
	<g>
		<g>
			<g>
				<g>
					<g>
						<g>
							<g>
								<rect x="90.873" y="211.634" style="fill:#EBEBEB;" width="60.791" height="15.544"/>
							</g>
						</g>
					</g>
				</g>
			</g>
		</g>
		<g>
			<g>
				<g>
					<g>
						<g>
							<g>
								<g>
									<path style="fill:#E0E0E0;" d="M125.959,243.55c-0.006-0.006-0.012-0.101-0.019-0.283c-0.005-0.208-0.012-0.47-0.02-0.797
										c-0.011-0.731-0.026-1.751-0.046-3.059c-0.024-2.683-0.06-6.541-0.104-11.405l0.188,0.182
										c-13.881,0.027-35.955,0.069-60.787,0.117c0.137-0.133-0.312,0.299,0.306-0.299v0.004v0.008v0.016v0.031v0.063v0.125v0.25
										l0,0.499v0.997c0,0.663,0,1.324,0,1.983c0,1.317-0.001,2.625-0.001,3.923c-0.002,2.594-0.004,5.146-0.005,7.645
										l-0.303-0.292c17.31,0.053,32.457,0.099,43.321,0.133c5.411,0.035,9.754,0.064,12.787,0.083
										c1.475,0.017,2.631,0.029,3.458,0.038c0.372,0.008,0.67,0.014,0.904,0.019C125.844,243.537,125.952,243.543,125.959,243.55
										c0.007,0.006-0.089,0.013-0.281,0.019c-0.225,0.005-0.51,0.011-0.867,0.019c-0.811,0.009-1.945,0.022-3.392,0.039
										c-3.017,0.02-7.335,0.048-12.717,0.083c-10.917,0.033-26.138,0.08-43.532,0.133l-0.303,0.001l0-0.294
										c-0.002-2.499-0.003-5.051-0.005-7.645c0-1.297-0.001-2.605-0.001-3.923c0-0.659,0-1.32,0-1.983v-0.997v-0.499v-0.25
										v-0.125v-0.063v-0.031v-0.016v-0.008v-0.004c0.62-0.599,0.174-0.166,0.313-0.3c24.832,0.048,46.907,0.09,60.787,0.117
										l0.19,0l-0.002,0.182c-0.044,4.91-0.08,8.804-0.104,11.513c-0.019,1.29-0.035,2.297-0.046,3.018
										c-0.008,0.314-0.015,0.566-0.02,0.765C125.971,243.473,125.965,243.556,125.959,243.55z"/>
								</g>
							</g>
						</g>
					</g>
				</g>
			</g>
		</g>
	</g>
	<g>
		<g>
			<g>
				<g>
					<g>
						<g>
							<g>
								<rect x="219.696" y="45.354" style="fill:#EBEBEB;" width="64.412" height="15.794"/>
							</g>
						</g>
					</g>
				</g>
			</g>
		</g>
	</g>
	<g>
		<g>
			<g>
				<g>
					<g>
						<g>
							<g>
								<rect x="196.467" y="374.73" style="fill:#EBEBEB;" width="64.412" height="15.794"/>
							</g>
						</g>
					</g>
				</g>
			</g>
		</g>
	</g>
	<g>
		<g>
			<g>
				<g>
					<g>
						<g>
							<g>
								<rect x="81.817" y="366.363" style="fill:#EBEBEB;" width="64.412" height="15.794"/>
							</g>
						</g>
					</g>
				</g>
			</g>
		</g>
	</g>
	<g>
		<g>
			<g>
				<g>
					<g>
						<g>
							<g>
								<g>
									<path style="fill:#E0E0E0;" d="M104.281,96.33c-0.006-0.007-0.013-0.11-0.02-0.308c-0.005-0.227-0.012-0.512-0.021-0.869
										c-0.012-0.797-0.028-1.908-0.048-3.333c-0.026-2.924-0.063-7.128-0.109-12.427l0.197,0.198
										c-14.523,0.029-37.621,0.076-63.604,0.128c0.144-0.145-0.327,0.326,0.32-0.326v0.004v0.008v0.017v0.034v0.068v0.136v0.272
										v0.544v1.086c0,0.723,0,1.443,0,2.16c-0.001,1.436-0.001,2.861-0.002,4.274c-0.002,2.827-0.004,5.607-0.005,8.331
										l-0.317-0.319c18.113,0.058,33.961,0.109,45.329,0.145c5.662,0.039,10.206,0.07,13.38,0.091
										c1.544,0.018,2.753,0.032,3.618,0.042c0.389,0.008,0.701,0.015,0.946,0.02C104.161,96.316,104.274,96.323,104.281,96.33
										c0.007,0.007-0.093,0.014-0.295,0.021c-0.235,0.005-0.534,0.012-0.907,0.02c-0.849,0.01-2.035,0.024-3.55,0.042
										c-3.156,0.021-7.675,0.052-13.306,0.091c-11.423,0.036-27.349,0.087-45.55,0.145l-0.317,0.001l0-0.32
										c-0.002-2.723-0.003-5.504-0.005-8.331c0-1.413-0.001-2.839-0.001-4.274c0-0.717,0-1.438,0-2.16l0-1.086v-0.544v-0.272
										v-0.136v-0.068v-0.034v-0.017v-0.008v-0.004c0.648-0.653,0.182-0.181,0.328-0.327c25.983,0.052,49.081,0.098,63.604,0.128
										l0.199,0l-0.001,0.198c-0.047,5.35-0.084,9.593-0.109,12.545c-0.021,1.406-0.036,2.502-0.048,3.289
										c-0.009,0.342-0.015,0.616-0.021,0.834C104.294,96.246,104.288,96.337,104.281,96.33z"/>
								</g>
							</g>
						</g>
					</g>
				</g>
			</g>
		</g>
		<g>
			<g>
				<g>
					<g>
						<g>
							<g>
								<g>
									<path style="fill:#E0E0E0;" d="M112.906,79.393c-0.008-0.008-0.016-0.117-0.024-0.322
										c-0.007-0.243-0.015-0.538-0.025-0.898c-0.014-0.833-0.033-1.966-0.058-3.396c-0.03-2.97-0.073-7.164-0.126-12.321
										l0.233,0.234c-9.9,0.024-23.37,0.056-38.215,0.092c-0.291,0.291,0.391-0.397,0.321-0.325v0.004v0.009v0.018v0.035v0.069
										v0.139v0.278v0.555l0,1.107c0,0.736,0,1.469-0.001,2.197c-0.001,1.456-0.002,2.894-0.003,4.311
										c-0.004,2.833-0.008,5.58-0.011,8.212l-0.308-0.31c11.033,0.059,20.531,0.111,27.339,0.147
										c3.357,0.036,6.048,0.065,7.964,0.086c0.895,0.016,1.607,0.029,2.148,0.039C112.63,79.368,112.893,79.381,112.906,79.393
										c0.013,0.013-0.225,0.025-0.694,0.038c-0.525,0.01-1.216,0.023-2.084,0.039c-1.898,0.021-4.565,0.05-7.893,0.086
										c-6.859,0.037-16.43,0.088-27.547,0.147l-0.308,0.002l-0.001-0.312c-0.004-2.632-0.008-5.379-0.012-8.212
										c-0.001-1.417-0.002-2.855-0.003-4.311c0-0.728,0-1.46-0.001-2.197l0-1.107v-0.555v-0.278v-0.139v-0.069v-0.035v-0.018
										v-0.009v-0.004c-0.071,0.069,0.615-0.619,0.327-0.328c14.845,0.036,28.314,0.068,38.215,0.092l0.236,0.001l-0.003,0.234
										c-0.053,5.217-0.095,9.459-0.125,12.464c-0.025,1.407-0.044,2.523-0.058,3.343
										C112.938,79.021,112.922,79.41,112.906,79.393z"/>
								</g>
							</g>
						</g>
					</g>
				</g>
			</g>
		</g>
	</g>
	<g>
		<g>
			<g>
				<g>
					<g>
						<g>
							<g>
								<g>
									<path style="fill:#E0E0E0;" d="M292.94,285.794c-0.006-0.007-0.013-0.11-0.02-0.308c-0.005-0.227-0.012-0.512-0.021-0.869
										c-0.012-0.797-0.028-1.908-0.048-3.333c-0.025-2.924-0.063-7.128-0.109-12.427l0.197,0.198
										c-14.523,0.029-37.621,0.076-63.604,0.128c0.144-0.145-0.327,0.326,0.321-0.326v0.004v0.008v0.017v0.034v0.068v0.136v0.272
										v0.544v1.086c0,0.723,0,1.443,0,2.16c-0.001,1.436-0.001,2.861-0.002,4.274c-0.002,2.827-0.004,5.607-0.005,8.331
										l-0.317-0.319c18.113,0.058,33.962,0.109,45.329,0.145c5.662,0.039,10.206,0.07,13.379,0.091
										c1.544,0.018,2.753,0.032,3.618,0.042c0.389,0.008,0.701,0.015,0.946,0.02C292.82,285.78,292.934,285.787,292.94,285.794
										c0.007,0.007-0.093,0.014-0.294,0.021c-0.235,0.005-0.534,0.012-0.907,0.02c-0.849,0.01-2.035,0.024-3.55,0.042
										c-3.156,0.022-7.675,0.052-13.306,0.091c-11.423,0.036-27.349,0.087-45.55,0.145l-0.317,0.001l0-0.32
										c-0.002-2.723-0.003-5.504-0.005-8.331c0-1.414-0.001-2.839-0.001-4.274c0-0.717,0-1.438,0-2.16l0-1.086v-0.544v-0.272
										v-0.136v-0.068v-0.034v-0.017v-0.008v-0.004c0.648-0.653,0.182-0.181,0.328-0.327c25.983,0.052,49.081,0.098,63.604,0.128
										l0.199,0l-0.002,0.198c-0.047,5.35-0.083,9.593-0.109,12.545c-0.021,1.406-0.036,2.502-0.048,3.289
										c-0.009,0.342-0.015,0.616-0.021,0.834C292.954,285.71,292.947,285.801,292.94,285.794z"/>
								</g>
							</g>
						</g>
					</g>
				</g>
			</g>
		</g>
		<g>
			<g>
				<g>
					<g>
						<g>
							<g>
								<g>
									<path style="fill:#E0E0E0;" d="M301.565,268.858c-0.008-0.008-0.016-0.117-0.024-0.322
										c-0.007-0.243-0.015-0.538-0.025-0.898c-0.014-0.833-0.033-1.966-0.058-3.396c-0.03-2.97-0.073-7.164-0.126-12.321
										l0.233,0.234c-9.9,0.024-23.37,0.056-38.215,0.092c-0.291,0.291,0.391-0.398,0.321-0.325v0.004v0.009v0.017v0.035v0.069
										v0.14v0.278v0.555l0,1.107c0,0.736,0,1.468-0.001,2.197c-0.001,1.456-0.002,2.894-0.003,4.31
										c-0.004,2.833-0.008,5.58-0.011,8.212l-0.308-0.31c11.033,0.059,20.531,0.111,27.339,0.148
										c3.357,0.036,6.048,0.065,7.964,0.086c0.895,0.016,1.607,0.029,2.148,0.039
										C301.29,268.832,301.552,268.845,301.565,268.858c0.013,0.013-0.225,0.025-0.694,0.038
										c-0.525,0.01-1.216,0.023-2.084,0.039c-1.898,0.021-4.565,0.05-7.893,0.086c-6.859,0.037-16.43,0.088-27.547,0.147
										l-0.308,0.002l-0.001-0.312c-0.004-2.632-0.008-5.379-0.012-8.212c-0.001-1.417-0.002-2.855-0.003-4.31
										c0-0.728,0-1.46-0.001-2.197l0-1.107v-0.555v-0.278v-0.14v-0.069v-0.035v-0.017v-0.009v-0.004
										c-0.071,0.069,0.615-0.619,0.327-0.328c14.845,0.036,28.314,0.068,38.215,0.092l0.236,0.001l-0.003,0.234
										c-0.053,5.217-0.095,9.459-0.125,12.464c-0.025,1.407-0.044,2.523-0.058,3.343
										C301.597,268.485,301.581,268.874,301.565,268.858z"/>
								</g>
							</g>
						</g>
					</g>
				</g>
			</g>
		</g>
	</g>
	<g>
		<g>
			<g>
				<g>
					<g>
						<g>
							<g>
								<g>
									<path style="fill:#E0E0E0;" d="M438.784,70.545c-0.006-0.007-0.013-0.11-0.02-0.308c-0.005-0.227-0.012-0.512-0.021-0.869
										c-0.012-0.797-0.027-1.908-0.048-3.333c-0.025-2.924-0.063-7.128-0.109-12.427l0.197,0.198
										c-14.523,0.029-37.621,0.076-63.604,0.128c0.143-0.145-0.327,0.325,0.32-0.326v0.004v0.009v0.017v0.034v0.068v0.136v0.273
										v0.544v1.086c0,0.723,0,1.443,0,2.16c-0.001,1.436-0.001,2.861-0.001,4.274c-0.002,2.827-0.004,5.607-0.006,8.331
										l-0.317-0.319c18.113,0.058,33.961,0.109,45.329,0.145c5.662,0.039,10.206,0.07,13.38,0.091
										c1.544,0.018,2.753,0.032,3.618,0.042c0.389,0.008,0.701,0.015,0.946,0.02C438.664,70.531,438.777,70.538,438.784,70.545
										c0.007,0.007-0.093,0.014-0.294,0.021c-0.235,0.005-0.534,0.012-0.907,0.02c-0.849,0.01-2.035,0.024-3.55,0.042
										c-3.156,0.021-7.675,0.052-13.306,0.091c-11.423,0.036-27.349,0.087-45.55,0.145l-0.317,0.001l0-0.32
										c-0.002-2.723-0.003-5.504-0.005-8.331c0-1.414-0.001-2.839-0.001-4.274c0-0.717,0-1.438,0-2.16l0-1.086v-0.544v-0.273
										v-0.136v-0.068v-0.034v-0.017v-0.009v-0.004c0.648-0.653,0.182-0.181,0.328-0.327c25.983,0.052,49.081,0.098,63.604,0.128
										l0.199,0l-0.001,0.198c-0.047,5.35-0.083,9.593-0.109,12.545c-0.021,1.406-0.036,2.502-0.048,3.289
										c-0.009,0.342-0.015,0.616-0.021,0.834C438.797,70.461,438.79,70.551,438.784,70.545z"/>
								</g>
							</g>
						</g>
					</g>
				</g>
			</g>
		</g>
		<g>
			<g>
				<g>
					<g>
						<g>
							<g>
								<g>
									<path style="fill:#E0E0E0;" d="M447.408,53.608c-0.008-0.008-0.016-0.117-0.024-0.322
										c-0.007-0.243-0.015-0.538-0.025-0.898c-0.014-0.833-0.033-1.966-0.058-3.396c-0.03-2.97-0.073-7.164-0.126-12.321
										l0.233,0.234c-9.9,0.024-23.37,0.056-38.215,0.092c-0.291,0.291,0.391-0.397,0.321-0.325v0.004v0.009v0.018v0.035v0.069
										v0.14v0.278v0.556l0,1.107c0,0.736,0,1.468-0.001,2.197c-0.001,1.455-0.002,2.894-0.003,4.31
										c-0.004,2.833-0.008,5.58-0.011,8.212l-0.308-0.31c11.033,0.059,20.531,0.111,27.339,0.148
										c3.357,0.036,6.048,0.065,7.964,0.086c0.895,0.016,1.607,0.029,2.148,0.039C447.133,53.583,447.395,53.595,447.408,53.608
										c0.013,0.013-0.225,0.025-0.694,0.038c-0.525,0.01-1.216,0.023-2.084,0.039c-1.898,0.021-4.565,0.05-7.893,0.086
										c-6.859,0.037-16.43,0.088-27.547,0.147l-0.308,0.002l-0.001-0.312c-0.004-2.632-0.008-5.379-0.012-8.212
										c-0.001-1.417-0.002-2.855-0.003-4.31c0-0.728,0-1.46-0.001-2.197l0-1.107v-0.556v-0.278v-0.14v-0.069v-0.035v-0.018
										v-0.009v-0.004c-0.071,0.069,0.615-0.619,0.327-0.328c14.845,0.036,28.315,0.068,38.215,0.092l0.236,0.001l-0.003,0.234
										c-0.053,5.217-0.095,9.459-0.125,12.463c-0.024,1.407-0.044,2.523-0.058,3.343
										C447.44,53.236,447.424,53.624,447.408,53.608z"/>
								</g>
							</g>
						</g>
					</g>
				</g>
			</g>
		</g>
	</g>
	<g>
		<g>
			<g>
				<g>
					<g>
						<g>
							<g>
								<g>
									<path style="fill:#E0E0E0;" d="M452.615,366.25c-0.006-0.007-0.013-0.11-0.02-0.308c-0.005-0.227-0.012-0.512-0.021-0.869
										c-0.012-0.797-0.027-1.908-0.048-3.333c-0.025-2.924-0.063-7.128-0.109-12.427l0.197,0.198
										c-14.523,0.029-37.621,0.076-63.604,0.128c0.143-0.145-0.327,0.325,0.32-0.326v0.004v0.009v0.017v0.034v0.068v0.136v0.272
										v0.544v1.086c0,0.723,0,1.443,0,2.16c-0.001,1.436-0.001,2.861-0.001,4.274c-0.002,2.827-0.004,5.607-0.006,8.331
										l-0.317-0.319c18.113,0.058,33.961,0.109,45.329,0.145c5.662,0.039,10.206,0.07,13.38,0.091
										c1.544,0.018,2.753,0.032,3.618,0.042c0.389,0.008,0.701,0.015,0.946,0.02C452.495,366.237,452.608,366.244,452.615,366.25
										c0.007,0.007-0.093,0.014-0.294,0.021c-0.235,0.005-0.534,0.012-0.907,0.02c-0.849,0.01-2.035,0.024-3.55,0.042
										c-3.156,0.022-7.675,0.052-13.306,0.091c-11.423,0.036-27.349,0.087-45.55,0.145l-0.317,0.001l0-0.32
										c-0.002-2.723-0.003-5.504-0.005-8.331c0-1.414-0.001-2.839-0.001-4.274c0-0.717,0-1.438,0-2.16l0-1.086v-0.544v-0.272
										v-0.136v-0.068v-0.034v-0.017v-0.009v-0.004c0.648-0.653,0.182-0.181,0.328-0.327c25.983,0.052,49.081,0.098,63.604,0.128
										l0.199,0l-0.001,0.198c-0.047,5.35-0.083,9.593-0.109,12.545c-0.021,1.406-0.036,2.502-0.048,3.289
										c-0.009,0.342-0.015,0.616-0.021,0.834C452.628,366.166,452.621,366.257,452.615,366.25z"/>
								</g>
							</g>
						</g>
					</g>
				</g>
			</g>
		</g>
		<g>
			<g>
				<g>
					<g>
						<g>
							<g>
								<g>
									<path style="fill:#E0E0E0;" d="M461.239,349.314c-0.008-0.008-0.016-0.117-0.024-0.322
										c-0.007-0.243-0.015-0.538-0.025-0.898c-0.014-0.833-0.033-1.966-0.058-3.395c-0.03-2.97-0.073-7.164-0.126-12.321
										l0.233,0.234c-9.9,0.024-23.37,0.056-38.215,0.092c-0.291,0.291,0.391-0.397,0.321-0.325v0.004v0.009v0.017v0.035v0.069
										v0.14v0.278v0.556l0,1.107c0,0.736,0,1.468-0.001,2.197c-0.001,1.455-0.002,2.894-0.003,4.311
										c-0.004,2.833-0.008,5.58-0.011,8.212l-0.308-0.31c11.033,0.059,20.531,0.111,27.339,0.148
										c3.357,0.036,6.048,0.065,7.964,0.086c0.895,0.016,1.607,0.029,2.148,0.039
										C460.964,349.288,461.226,349.301,461.239,349.314c0.013,0.013-0.225,0.025-0.694,0.038
										c-0.525,0.01-1.216,0.023-2.084,0.039c-1.898,0.021-4.565,0.05-7.893,0.086c-6.859,0.037-16.43,0.088-27.547,0.147
										l-0.308,0.002l-0.001-0.312c-0.004-2.632-0.008-5.379-0.012-8.212c-0.001-1.417-0.002-2.855-0.003-4.311
										c0-0.728,0-1.46-0.001-2.197l0-1.107v-0.556v-0.278v-0.14v-0.069v-0.035v-0.017v-0.009v-0.004
										c-0.071,0.069,0.615-0.619,0.327-0.328c14.845,0.036,28.315,0.068,38.215,0.092l0.236,0.001l-0.002,0.234
										c-0.053,5.217-0.095,9.459-0.125,12.463c-0.024,1.407-0.044,2.523-0.058,3.343
										C461.271,348.941,461.255,349.33,461.239,349.314z"/>
								</g>
							</g>
						</g>
					</g>
				</g>
			</g>
		</g>
	</g>
	<g>
		<g>
			<g>
				<g>
					<path style="fill:#E0E0E0;" d="M179.94,56.258c-0.606-1.741-1.847-3.219-3.346-4.291c-1.468-1.05-3.233-1.742-5.038-1.731
						c-1.918,0.012-3.816,0.848-5.121,2.253c-0.776,0.836-1.335,1.866-1.634,2.967c-0.706-0.758-1.574-1.365-2.535-1.751
						c-1.78-0.713-3.854-0.657-5.593,0.151c-1.637,0.761-2.936,2.141-3.815,3.718c-0.897,1.61-1.387,3.477-1.191,5.309
						c0.246,2.295,1.229,4.647,2.822,6.317c1.683,1.763,4.033,2.965,6.345,3.735c3.888,1.295,8.978,2.866,8.978,2.866
						s3.172-3.706,6.135-6.539c1.762-1.684,3.372-3.775,4.14-6.088C180.815,60.984,180.698,58.438,179.94,56.258z"/>
				</g>
			</g>
		</g>
	</g>
	<g>
		<g>
			<g>
				<g>
					<path style="fill:#E0E0E0;" d="M465.166,135.075c0.471-1.782,0.267-3.701-0.377-5.428c-0.631-1.691-1.707-3.251-3.211-4.25
						c-1.597-1.061-3.638-1.43-5.506-0.993c-1.111,0.26-2.15,0.802-3.013,1.548c-0.161-1.023-0.542-2.012-1.124-2.869
						c-1.078-1.586-2.829-2.698-4.723-3c-1.783-0.284-3.632,0.135-5.241,0.951c-1.643,0.834-3.094,2.108-3.954,3.737
						c-1.078,2.041-1.578,4.54-1.19,6.815c0.411,2.403,1.687,4.712,3.175,6.643c2.501,3.247,5.844,7.394,5.844,7.394
						s4.702-1.301,8.741-1.995c2.402-0.412,4.906-1.246,6.835-2.735C463.251,139.483,464.576,137.306,465.166,135.075z"/>
				</g>
			</g>
		</g>
	</g>
	<g>
		<g>
			<g>
				<g>
					<path style="fill:#E0E0E0;" d="M60.038,291.278c-0.669-1.717-1.964-3.149-3.501-4.165c-1.506-0.995-3.294-1.622-5.098-1.544
						c-1.916,0.083-3.783,0.987-5.035,2.44c-0.745,0.864-1.266,1.914-1.523,3.025c-0.733-0.732-1.623-1.307-2.598-1.656
						c-1.805-0.647-3.875-0.515-5.583,0.357c-1.608,0.821-2.856,2.247-3.676,3.855c-0.837,1.642-1.259,3.526-0.995,5.349
						c0.331,2.284,1.398,4.599,3.052,6.208c1.747,1.7,4.139,2.815,6.478,3.499c3.933,1.151,9.077,2.534,9.077,2.534
						s3.034-3.82,5.89-6.76c1.699-1.748,3.231-3.896,3.914-6.236C61.087,295.969,60.876,293.429,60.038,291.278z"/>
				</g>
			</g>
		</g>
	</g>
</g>
<g id="Background_Simple" style="display:none;">
	<g style="display:inline;">
		<path style="fill:#F5F5F5;" d="M75.195,116.551l1.629-3.762c13.734-31.713,43.419-53.776,77.571-56.293
			c4.39-0.324,8.805-0.331,13.206-0.004c31.69,2.354,61.678,21.947,76.883,50.232c8.942,16.635,13.544,36.572,27.85,48.784
			c18.619,15.894,46.075,12.695,70.043,8.633c23.968-4.063,51.452-7.192,70.002,8.784c11.617,10.006,17.04,25.761,18.328,41.124
			c3.41,40.674-19.758,80.651-53.072,103.52c-33.314,22.87-75.223,30.274-115.471,27.768c-56.383-3.51-112.735-26.702-150.55-69.296
			C73.801,233.449,57.07,170.633,75.195,116.551z"/>
	</g>
	<g style="display:inline;">
		<circle style="fill:#F5F5F5;" cx="336.802" cy="91.279" r="46.318"/>
	</g>
</g>
<g id="Floor">
	<g>
		<g>
			<path style="fill:#263238;" d="M459.281,416.205c0,0.144-93.706,0.26-209.271,0.26c-115.606,0-209.291-0.117-209.291-0.26
				s93.686-0.26,209.291-0.26C365.575,415.945,459.281,416.061,459.281,416.205z"/>
		</g>
	</g>
</g>
<g id="Texts">
	<g>
		<path style="fill:#455A64;" d="M133.45,229.901h-20.101V101.984h20.101v54.822h22.843v-54.822h20.467v127.917h-20.467v-54.822
			H133.45V229.901z"/>
	</g>
	<g>
		<path style="fill:#FF725E;" d="M304.212,254.015v98.679c0,9.137,4.021,12.427,10.416,12.427c6.396,0,10.416-3.29,10.416-12.427
			v-98.679h19.005v97.399c0,20.467-10.233,32.162-29.969,32.162c-19.736,0-29.97-11.695-29.97-32.162v-97.399H304.212z"/>
	</g>
	<g>
		<path style="fill:#455A64;" d="M261.474,225.48H241.19l-3.472-23.208h-24.67l-3.472,23.208H191.12l20.467-127.918h29.421
			L261.474,225.48z M215.607,184.912h19.371l-9.686-64.689L215.607,184.912z"/>
	</g>
	<g>
		<path style="fill:#455A64;" d="M288.469,132.739v92.649h-18.091V97.47h25.218l20.649,76.568V97.47h17.908v127.917h-20.649
			L288.469,132.739z"/>
	</g>
	<g>
		<path style="fill:#455A64;" d="M387.101,166.561l-4.111,12.018l5.957,37.207l-19.036,3.048L350.515,97.694l19.037-3.048
			l8.45,52.783l16.47-56.773l19.037-3.048l-17.834,58.233l37.229,62.907l-19.555,3.131L387.101,166.561z"/>
	</g>
	<g>
		<path style="fill:#FF725E;" d="M213.768,284.714c0-20.467,10.782-32.162,30.517-32.162c19.736,0,30.518,11.695,30.518,32.162
			v66.518c0,20.467-10.781,32.162-30.518,32.162c-19.735,0-30.517-11.695-30.517-32.162V284.714z M233.869,352.511
			c0,9.137,4.021,12.609,10.416,12.609c6.396,0,10.416-3.473,10.416-12.609v-69.075c0-9.138-4.02-12.609-10.416-12.609
			c-6.395,0-10.416,3.472-10.416,12.609V352.511z"/>
	</g>
	<g>
		<path style="fill:#FF725E;" d="M167.087,342.487l-25.401-85.522h21.015l15.35,58.294l15.35-58.294h19.188l-25.401,85.522v42.396
			h-20.101V342.487z"/>
	</g>
</g>
<g id="Character_2">
	<g>
		<g>
			<g>
				<path style="fill:#FFBF9D;" d="M352.978,233.047l-6.304-35.138c-1.853-8.69,1.66-17.011,10.398-18.623l0.816-0.102
					c8.214-1.024,15.839,4.428,17.52,12.533c1.564,7.541,3.196,15.893,3.655,19.986c0.95,8.473-7.347,10.844-7.347,10.844
					c-0.019,0.003,0.801,5.121,1.217,7.588l2.936,5.436l-7.195-0.53L352.978,233.047z"/>
			</g>
			<g>
				<path style="fill:#FF9A6C;" d="M371.715,222.547c0,0-5.294,0.978-11.422-1.883c0,0,3.443,6.03,11.79,4.216L371.715,222.547z"/>
			</g>
			<g>
				<path style="fill:#263238;" d="M372.239,199.947c0.102,0.635-0.351,1.245-1.013,1.364c-0.66,0.118-1.279-0.299-1.381-0.934
					c-0.102-0.635,0.351-1.246,1.011-1.365C371.517,198.893,372.137,199.311,372.239,199.947z"/>
			</g>
			<g>
				<path style="fill:#263238;" d="M374.075,195.678c-0.13,0.176-1.13-0.387-2.43-0.221c-1.301,0.146-2.171,0.934-2.332,0.793
					c-0.078-0.062,0.039-0.365,0.417-0.72c0.371-0.352,1.032-0.732,1.843-0.829c0.81-0.096,1.529,0.117,1.958,0.373
					C373.969,195.33,374.14,195.598,374.075,195.678z"/>
			</g>
			<g>
				<path style="fill:#263238;" d="M360.365,201.409c0.102,0.635-0.352,1.245-1.013,1.364c-0.66,0.119-1.279-0.298-1.381-0.934
					c-0.102-0.635,0.352-1.246,1.012-1.365C359.644,200.355,360.262,200.774,360.365,201.409z"/>
			</g>
			<g>
				<path style="fill:#263238;" d="M361.368,197.568c-0.13,0.176-1.131-0.387-2.43-0.221c-1.3,0.147-2.171,0.935-2.332,0.793
					c-0.078-0.062,0.038-0.365,0.417-0.719c0.371-0.352,1.032-0.732,1.842-0.83c0.81-0.096,1.529,0.117,1.959,0.373
					C361.261,197.22,361.433,197.488,361.368,197.568z"/>
			</g>
			<g>
				<path style="fill:#263238;" d="M367.278,206.976c-0.015-0.073,0.775-0.314,2.064-0.644c0.328-0.076,0.634-0.181,0.661-0.414
					c0.048-0.249-0.135-0.59-0.344-0.956c-0.412-0.764-0.844-1.566-1.297-2.406c-1.812-3.429-3.168-6.266-3.03-6.337
					c0.139-0.072,1.721,2.65,3.533,6.079c0.439,0.847,0.858,1.654,1.258,2.426c0.173,0.362,0.442,0.763,0.335,1.281
					c-0.059,0.259-0.28,0.47-0.485,0.554c-0.205,0.091-0.391,0.118-0.554,0.149C368.109,206.942,367.292,207.05,367.278,206.976z"/>
			</g>
			<g>
				<path style="fill:#263238;" d="M361.282,193.449c-0.135,0.354-1.44,0.162-2.98,0.321c-1.544,0.127-2.791,0.556-2.989,0.233
					c-0.088-0.155,0.133-0.486,0.641-0.822c0.502-0.336,1.301-0.649,2.225-0.736c0.924-0.085,1.766,0.076,2.322,0.314
					C361.061,192.996,361.341,193.281,361.282,193.449z"/>
			</g>
			<g>
				<path style="fill:#263238;" d="M373.658,191.848c-0.229,0.332-1.328,0.174-2.6,0.338c-1.277,0.126-2.318,0.526-2.609,0.252
					c-0.129-0.134-0.001-0.453,0.43-0.798c0.424-0.343,1.167-0.678,2.044-0.778c0.876-0.099,1.67,0.063,2.154,0.303
					C373.567,191.404,373.757,191.687,373.658,191.848z"/>
			</g>
			<g>
				<path style="fill:#FFBF9D;" d="M348.145,204.087c-0.152-0.044-6.027-0.994-5.121,4.766c0.906,5.761,6.503,3.663,6.487,3.496
					C349.495,212.183,348.145,204.087,348.145,204.087z"/>
			</g>
			<g>
				<path style="fill:#FF9A6C;" d="M347.408,210.444c-0.028-0.014-0.089,0.086-0.247,0.19c-0.153,0.102-0.43,0.199-0.748,0.133
					c-0.644-0.128-1.308-1.013-1.5-2.047c-0.097-0.522-0.066-1.038,0.055-1.481c0.11-0.449,0.336-0.786,0.634-0.889
					c0.294-0.118,0.54,0.031,0.636,0.182c0.102,0.149,0.084,0.27,0.116,0.275c0.018,0.012,0.108-0.116,0.024-0.346
					c-0.042-0.111-0.131-0.236-0.283-0.325c-0.156-0.091-0.368-0.116-0.578-0.06c-0.439,0.101-0.775,0.572-0.908,1.058
					c-0.157,0.492-0.204,1.074-0.095,1.661c0.22,1.155,0.984,2.148,1.855,2.257c0.422,0.042,0.741-0.133,0.894-0.297
					C347.419,210.585,347.429,210.452,347.408,210.444z"/>
			</g>
			<g>
				<path style="fill:#263238;" d="M363.355,208.453c0.196-0.045,0.425,1.274,1.715,2.017c1.289,0.746,2.67,0.357,2.712,0.54
					c0.033,0.08-0.269,0.31-0.861,0.428c-0.579,0.12-1.462,0.079-2.251-0.376c-0.788-0.456-1.215-1.172-1.353-1.706
					C363.173,208.813,363.264,208.46,363.355,208.453z"/>
			</g>
			<g>
				<path style="fill:#263238;" d="M385.754,182.212c-0.144-0.325-0.435-0.566-0.765-0.698c-0.721-0.287-1.473-0.118-2.21-0.015
					c-1.833,0.255-3.72,0.068-5.478-0.506c0.524-0.376,1-0.809,1.382-1.329c0.787-1.074,1.102-2.58,0.482-3.758
					c-0.116-0.221-0.29-0.445-0.538-0.481c-0.392-0.057-0.663,0.362-0.879,0.694c-0.709,1.092-1.438,1.627-2.739,1.696
					c-0.808,0.043-1.605-0.016-2.291-0.308c-0.029-0.022-0.056-0.047-0.085-0.069c-0.348-0.263-0.686-0.513-1.018-0.754
					c-0.001-0.001-0.002-0.002-0.002-0.002l0.001,0.002c-2.502-1.814-4.597-3.015-6.637-3.489c-2.989-0.696-7.766-0.425-10.58,0.8
					c-2.814,1.225-5.079,4.014-5.021,7.083c-1.861-1.136-4.329-0.74-6.208,0.376l-0.054-0.014c-2.108,1.142-3.01,3.696-3.315,6.074
					c-0.016,0.13-0.028,0.261-0.043,0.391c-0.569,1.313-1.435,2.497-2.548,3.399c-0.196,0.159-0.419,0.351-0.407,0.604
					c0.012,0.25,0.251,0.422,0.475,0.534c0.594,0.3,1.257,0.455,1.922,0.47c-0.12,0.573-0.278,1.135-0.496,1.683
					c-0.186,0.466-0.406,1.023-0.117,1.433c0.223,0.317,0.681,0.391,1.052,0.276c0.37-0.115,0.674-0.376,0.966-0.631
					c-0.157,0.634-0.313,1.269-0.469,1.904c0.829,0.015,1.655-0.179,2.402-0.538c0.804,2.055,1.772,5.94,2.544,7.297
					c1.534-0.211,1.88-0.435,2.691-0.298c1.049,0.176,0.943,2.002,2.163,1.298c0.621-0.358,1.247-3.021,1.364-3.729
					c0.774-4.696,0.519-9.559-0.737-14.15c0.771-1.129,1.762-2.107,2.9-2.864l-0.086,0.105c2.229-1.184,4.77-2.403,7.177-1.644
					c1.867,0.589,3.166,2.23,4.685,3.465c2.88,2.34,5.887,3.361,9.574,2.95c0.725,2.493,1.469,6.638,1.962,8.993l1.29-5.066
					l0.005,0.019c0.121-0.304,0.212-0.606,0.299-0.907l0.032-0.092l-0.002-0.011c0.138-0.484,0.265-0.967,0.458-1.454
					c0.009,0.006,0.017,0.011,0.026,0.017c1.462,0.935,3.089-1.094,1.859-2.32c-0.244-0.243-0.522-0.45-0.829-0.609
					c0.673,0.461,1.591,0.589,2.325,0.232c0.734-0.357,1.211-1.229,1.019-2.023c-0.131-0.541-0.599-0.971-1.128-1.111
					c1.051-0.081,2.079-0.472,2.904-1.13C385.576,183.576,386.072,182.928,385.754,182.212z"/>
			</g>
			<g>
				<path style="fill:#455A64;" d="M352.181,181.634c0.02,0.019-0.319,0.278-0.726,0.905c-0.403,0.624-0.802,1.663-0.86,3.001
					c-0.033,0.666-0.004,1.4,0.117,2.177c0.117,0.777,0.309,1.599,0.504,2.466c0.193,0.868,0.399,1.784,0.493,2.756
					c0.046,0.485,0.064,0.983,0.036,1.489c-0.032,0.497-0.077,1.038-0.375,1.507c-0.237,0.382-0.697,0.606-1.128,0.585
					c-0.433-0.009-0.843-0.175-1.165-0.439c-0.641-0.549-0.901-1.331-1.146-2.018l0.18-0.006c-0.191,0.681-0.39,1.356-0.752,1.926
					c-0.354,0.572-0.902,0.999-1.502,1.148c-0.299,0.075-0.612,0.073-0.893-0.017c-0.286-0.088-0.513-0.279-0.681-0.49
					c-0.163-0.217-0.269-0.467-0.295-0.72c-0.025-0.253,0.036-0.505,0.169-0.698l0.102,0.066c-0.535,0.842-1.16,1.346-1.601,1.64
					c-0.223,0.148-0.404,0.243-0.528,0.305c-0.125,0.059-0.191,0.086-0.193,0.081c-0.003-0.006,0.059-0.042,0.178-0.111
					c0.118-0.071,0.292-0.175,0.506-0.329c0.424-0.307,1.026-0.819,1.535-1.651l0.102,0.066c-0.237,0.345-0.171,0.875,0.138,1.262
					c0.156,0.19,0.363,0.359,0.614,0.432c0.25,0.078,0.535,0.077,0.808,0.006c0.551-0.142,1.061-0.542,1.391-1.085
					c0.34-0.544,0.533-1.201,0.72-1.882l0.079-0.289L348.11,194c0.244,0.686,0.508,1.435,1.092,1.929
					c0.288,0.236,0.663,0.386,1.042,0.392c0.381,0.014,0.752-0.168,0.959-0.496c0.262-0.407,0.314-0.921,0.344-1.409
					c0.028-0.493,0.012-0.981-0.033-1.458c-0.089-0.956-0.29-1.867-0.478-2.734c-0.19-0.868-0.377-1.694-0.488-2.483
					c-0.115-0.787-0.136-1.533-0.094-2.209c0.076-1.358,0.505-2.414,0.936-3.035C351.826,181.871,352.181,181.634,352.181,181.634z"
					/>
			</g>
			<g>
				<path style="fill:#455A64;" d="M379.546,185.791c0.002,0.002-0.017,0.025-0.059,0.068c-0.05,0.05-0.112,0.111-0.187,0.186
					c-0.081,0.083-0.186,0.182-0.322,0.285c-0.133,0.106-0.283,0.233-0.471,0.35c-0.725,0.494-1.924,1.059-3.509,1.21
					c-1.569,0.154-3.522-0.108-5.382-1.09c-1.873-0.95-3.629-2.505-5.155-4.362c-0.772-0.926-1.434-1.895-2.135-2.777
					c-0.698-0.882-1.441-1.683-2.283-2.275c-0.834-0.598-1.756-0.991-2.659-1.098c-0.452-0.062-0.891-0.023-1.304,0.051
					c-0.413,0.087-0.794,0.232-1.138,0.408c-0.689,0.357-1.213,0.85-1.594,1.332c-0.382,0.486-0.613,0.973-0.76,1.382
					c-0.263,0.835-0.207,1.336-0.239,1.332c-0.004,0-0.006-0.03-0.007-0.089c0-0.072,0-0.158,0-0.264
					c0.006-0.232,0.053-0.575,0.172-1.002c0.138-0.421,0.363-0.923,0.746-1.427c0.381-0.5,0.911-1.013,1.617-1.388
					c0.353-0.185,0.745-0.339,1.172-0.433c0.427-0.082,0.888-0.125,1.355-0.065c0.937,0.103,1.89,0.505,2.746,1.112
					c0.865,0.602,1.625,1.416,2.33,2.304c0.709,0.887,1.371,1.854,2.137,2.771c1.515,1.842,3.246,3.381,5.085,4.325
					c1.827,0.976,3.736,1.245,5.285,1.113c1.561-0.131,2.749-0.666,3.479-1.134C379.2,186.14,379.527,185.769,379.546,185.791z"/>
			</g>
			<g>
				<path style="fill:#455A64;" d="M379.738,181.965c0.009,0.011-0.087,0.102-0.27,0.258c-0.18,0.16-0.461,0.365-0.825,0.594
					c-0.362,0.232-0.82,0.467-1.346,0.686c-0.529,0.209-1.13,0.397-1.776,0.522c-0.648,0.118-1.275,0.162-1.845,0.159
					c-0.569-0.013-1.081-0.065-1.503-0.15c-0.422-0.081-0.759-0.17-0.984-0.254c-0.227-0.079-0.349-0.129-0.345-0.142
					c0.011-0.036,0.514,0.132,1.352,0.256c0.419,0.066,0.922,0.103,1.481,0.105c0.558-0.008,1.172-0.056,1.807-0.172
					c0.633-0.123,1.222-0.301,1.745-0.497c0.519-0.206,0.975-0.423,1.341-0.636C379.307,182.275,379.715,181.936,379.738,181.965z"
					/>
			</g>
		</g>
		<g>
			<g>
				<g>
					<path style="fill:#263238;" d="M364.374,318.215l4.1,48.434l-1.389,8.42c0,0-16.793,48.237-16.437,68.209l19.646-0.937
						c0,0,19.174-54.616,20.676-60.655c1.502-6.038,9.241-46.385,9.241-46.385l12.742,31.911l0.355,7.442l-7.339,46.295
						l22.821,1.188c0,0,9.337-52.545,8.415-59.363s-15.994-60.099-15.994-60.099l-7.782-6.789l-44.394,7.488L364.374,318.215z"/>
				</g>
			</g>
			<g>
				<g>
					<g>
						<g>
							<g>
								<g>
									<g>
										<g>
											<g>
												<g>
													<g>
														<g>
															<g>
																<g>
																	<g>
																		<g>
																			<path style="fill:#263238;" d="M426.68,408.02l-0.701,19.419c0,0,18.478,7.295,18.68,10.897l-35.747-0.122
																				l-0.085-30.306L426.68,408.02z"/>
																		</g>
																	</g>
																</g>
															</g>
														</g>
													</g>
												</g>
											</g>
										</g>
									</g>
								</g>
							</g>
						</g>
					</g>
					<g>
						<g>
							<g>
								<g>
									<g>
										<g>
											<g>
												<g>
													<g>
														<g>
															<g>
																<g>
																	<g>
																		<g>
																			<g>
																				<path style="fill:#E0E0E0;" d="M414.929,425.768c-0.692,0.197-1.172,1.016-1.013,1.754
																					c0.159,0.738,0.945,1.261,1.64,1.076c0.695-0.184,1.3-1.148,1.063-1.863c-0.236-0.714-1.191-1.275-1.824-0.92"
																					/>
																			</g>
																		</g>
																	</g>
																</g>
															</g>
														</g>
													</g>
												</g>
											</g>
										</g>
									</g>
								</g>
							</g>
						</g>
					</g>
					<g>
						<g>
							<g>
								<g>
									<g>
										<g>
											<g>
												<g>
													<g>
														<g>
															<g>
																<g>
																	<g>
																		<g>
																			<path style="fill:#455A64;" d="M408.912,438.214l0.105-3.055l34.234,1.26c0,0,1.59,0.736,1.408,1.917
																				L408.912,438.214z"/>
																		</g>
																	</g>
																</g>
															</g>
														</g>
													</g>
												</g>
											</g>
										</g>
									</g>
								</g>
							</g>
						</g>
					</g>
					<g>
						<g>
							<g>
								<g>
									<g>
										<g>
											<g>
												<g>
													<g>
														<g>
															<g>
																<g>
																	<g>
																		<g>
																			<g>
																				<path style="fill:#FFFFFF;" d="M426.559,427.249c-0.006,0.184-0.879,0.265-1.739,0.854
																					c-0.875,0.565-1.319,1.361-1.48,1.288c-0.161-0.036,0.102-1.136,1.155-1.83
																					C425.542,426.857,426.597,427.08,426.559,427.249z"/>
																			</g>
																		</g>
																	</g>
																</g>
															</g>
														</g>
													</g>
												</g>
											</g>
										</g>
									</g>
								</g>
							</g>
						</g>
					</g>
					<g>
						<g>
							<g>
								<g>
									<g>
										<g>
											<g>
												<g>
													<g>
														<g>
															<g>
																<g>
																	<g>
																		<g>
																			<g>
																				<path style="fill:#FFFFFF;" d="M430.305,428.898c0.039,0.178-0.717,0.489-1.312,1.266
																					c-0.616,0.758-0.767,1.6-0.941,1.591c-0.164,0.029-0.283-1.05,0.474-2.001
																					C429.274,428.796,430.301,428.722,430.305,428.898z"/>
																			</g>
																		</g>
																	</g>
																</g>
															</g>
														</g>
													</g>
												</g>
											</g>
										</g>
									</g>
								</g>
							</g>
						</g>
					</g>
					<g>
						<g>
							<g>
								<g>
									<g>
										<g>
											<g>
												<g>
													<g>
														<g>
															<g>
																<g>
																	<g>
																		<g>
																			<g>
																				<path style="fill:#FFFFFF;" d="M432.424,433.638c-0.159,0.038-0.4-0.882,0.051-1.889
																					c0.444-1.01,1.267-1.406,1.341-1.252c0.098,0.152-0.432,0.691-0.79,1.523
																					C432.649,432.844,432.598,433.621,432.424,433.638z"/>
																			</g>
																		</g>
																	</g>
																</g>
															</g>
														</g>
													</g>
												</g>
											</g>
										</g>
									</g>
								</g>
							</g>
						</g>
					</g>
					<g>
						<g>
							<g>
								<g>
									<g>
										<g>
											<g>
												<g>
													<g>
														<g>
															<g>
																<g>
																	<g>
																		<g>
																			<g>
																				<path style="fill:#FFFFFF;" d="M426.253,422.804c-0.074,0.168-0.874-0.089-1.861-0.022
																					c-0.988,0.046-1.757,0.393-1.847,0.234c-0.101-0.133,0.65-0.812,1.814-0.874
																					C425.521,422.071,426.339,422.66,426.253,422.804z"/>
																			</g>
																		</g>
																	</g>
																</g>
															</g>
														</g>
													</g>
												</g>
											</g>
										</g>
									</g>
								</g>
							</g>
						</g>
					</g>
				</g>
			</g>
			<g>
				<g>
					<g>
						<g>
							<g>
								<g>
									<g>
										<g>
											<g>
												<g>
													<g>
														<path style="fill:#263238;" d="M368.389,428.456l0.137,22.301l5.194,17.607c0.374,1.269-0.404,2.59-1.696,2.877l0,0
															c-0.723,0.161-1.474-0.034-2.023-0.531c-3.497-3.164-16.301-14.866-16.22-16.498
															c0.094-1.891-1.706-23.513-1.706-23.513L368.389,428.456z"/>
													</g>
												</g>
											</g>
										</g>
									</g>
								</g>
							</g>
						</g>
					</g>
					<g>
						<g>
							<g>
								<g>
									<g>
										<g>
											<g>
												<g>
													<g>
														<path style="fill:#455A64;" d="M372.025,471.241l-18.286-18.534l0.027,0.945c0.024,0.816,0.333,1.599,0.88,2.205
															c1.464,1.622,5.604,6.013,15.288,14.856C370.498,471.227,371.285,471.426,372.025,471.241L372.025,471.241z"/>
													</g>
												</g>
											</g>
										</g>
									</g>
								</g>
							</g>
						</g>
					</g>
					<g style="opacity:0.6;">
						<g>
							<g>
								<g>
									<g>
										<g>
											<g>
												<g>
													<g>
														<g>
															<path style="fill:#FFFFFF;" d="M358.104,445.383c0.57,0.37,0.777,1.21,0.431,1.794
																c-0.347,0.585-1.199,0.802-1.775,0.442c-0.576-0.359-0.855-1.36-0.446-1.902c0.41-0.542,1.424-0.743,1.897-0.255"/>
														</g>
													</g>
												</g>
											</g>
										</g>
									</g>
								</g>
							</g>
						</g>
					</g>
					<g>
						<g>
							<g>
								<g>
									<g>
										<g>
											<g>
												<g>
													<g>
														<g>
															<path style="fill:#FFFFFF;" d="M366.647,461.649c0.128,0.058,0.597-1.124,1.905-1.79
																c1.287-0.705,2.528-0.427,2.552-0.565c0.018-0.055-0.269-0.22-0.793-0.279c-0.519-0.061-1.271,0.034-1.988,0.411
																c-0.715,0.38-1.217,0.947-1.459,1.411C366.617,461.302,366.591,461.633,366.647,461.649z"/>
														</g>
													</g>
												</g>
											</g>
										</g>
									</g>
								</g>
							</g>
						</g>
					</g>
					<g>
						<g>
							<g>
								<g>
									<g>
										<g>
											<g>
												<g>
													<g>
														<g>
															<path style="fill:#FFFFFF;" d="M368.322,464.588c0.109,0.093,0.803-0.652,1.947-1.016
																c1.135-0.389,2.137-0.204,2.169-0.344c0.061-0.116-1.026-0.557-2.323-0.121
																C368.814,463.529,368.204,464.531,368.322,464.588z"/>
														</g>
													</g>
												</g>
											</g>
										</g>
									</g>
								</g>
							</g>
						</g>
					</g>
					<g>
						<g>
							<g>
								<g>
									<g>
										<g>
											<g>
												<g>
													<g>
														<g>
															<path style="fill:#FFFFFF;" d="M363.581,457.909c0.108,0.103,1.17-1.049,2.898-1.77
																c1.717-0.749,3.284-0.718,3.284-0.867c0.033-0.12-1.632-0.381-3.476,0.416
																C364.436,456.466,363.471,457.849,363.581,457.909z"/>
														</g>
													</g>
												</g>
											</g>
										</g>
									</g>
								</g>
							</g>
						</g>
					</g>
					<g>
						<g>
							<g>
								<g>
									<g>
										<g>
											<g>
												<g>
													<g>
														<g>
															<path style="fill:#FFFFFF;" d="M362.973,451.133c0.064,0.132,1.28-0.419,2.881-0.523
																c1.6-0.126,2.882,0.244,2.926,0.104c0.058-0.111-1.242-0.724-2.961-0.593
																C364.098,450.238,362.899,451.032,362.973,451.133z"/>
														</g>
													</g>
												</g>
											</g>
										</g>
									</g>
								</g>
							</g>
						</g>
					</g>
					<g>
						<g>
							<g>
								<g>
									<g>
										<g>
											<g>
												<g>
													<g>
														<g>
															<path style="fill:#FFFFFF;" d="M362.767,444.588c0.073,0.127,1.289-0.652,2.984-0.624
																c1.696-0.009,2.903,0.783,2.977,0.657c0.035-0.047-0.216-0.32-0.739-0.602c-0.518-0.283-1.323-0.537-2.236-0.544
																c-0.913-0.003-1.72,0.242-2.241,0.519C362.987,444.27,362.732,444.54,362.767,444.588z"/>
														</g>
													</g>
												</g>
											</g>
										</g>
									</g>
								</g>
							</g>
						</g>
					</g>
				</g>
			</g>
		</g>
		<g>
			<g>
				<g>
					<path style="fill:#263238;" d="M342.544,234.124c0,0-11.953,7.223-3.322,24.442c10.582,21.111,20.661,50.799,24.117,52.762
						c1.413,0.802,8.05-2.53,8.05-2.53l5.273-9.754l-13.971-36.505l-9.122-21.107L342.544,234.124z"/>
				</g>
			</g>
			<g>
				<g>
					<path style="fill:#263238;" d="M351.26,228.532l-8.716,5.592l23.133,40.798l-3.347,36.455l5.227,2.958l53.988-7.483l1.748-2.44
						l-5.925-17.124l-7.898-19.222c0,0-7.807-17.467-12.418-24.909c-4.612-7.442-9.561-14.968-9.561-14.968l-13.235-0.912l-1.62-1.8
						c0,0-1.996,3.617-7.426,3.952c-4.417,0.272-13.795-2.128-13.795-2.128L351.26,228.532z"/>
				</g>
			</g>
			<g>
				<g>
					<path style="fill:#263238;" d="M459.028,288.88c0,0-31.671-25.364-34.255-28.327c-2.585-2.963-24.598-26.142-24.598-26.142
						s-8.058-7.727-12.683-6.223c-5.669,1.843,5.622,29.117,5.622,29.117s23.297,19.335,27.073,23.012
						c3.776,3.678,26.462,18.284,26.462,18.284l5.381-0.746L459.028,288.88z"/>
				</g>
			</g>
			<g>
				<g>
					<g>
						<path style="fill:#263238;" d="M356.305,250.434c0.016-0.006,0.098,0.16,0.239,0.482c0.157,0.374,0.354,0.842,0.596,1.416
							c0.503,1.234,1.246,3.015,2.182,5.207c1.86,4.389,4.561,10.396,7.531,17.04c2.972,6.646,5.551,12.717,7.256,17.176
							c0.855,2.228,1.519,4.042,1.938,5.309c0.194,0.592,0.353,1.075,0.479,1.46c0.104,0.336,0.151,0.514,0.136,0.52
							c-0.016,0.006-0.094-0.162-0.229-0.487c-0.149-0.377-0.336-0.849-0.565-1.428c-0.474-1.246-1.186-3.039-2.081-5.247
							c-1.785-4.419-4.411-10.459-7.382-17.104c-2.969-6.642-5.623-12.678-7.403-17.106c-0.896-2.212-1.591-4.014-2.04-5.271
							c-0.207-0.588-0.375-1.067-0.51-1.45C356.34,250.618,356.289,250.44,356.305,250.434z"/>
					</g>
				</g>
			</g>
			<g>
				<g>
					<g>
						<path style="fill:#263238;" d="M395.072,240.119c0.011-0.013,0.11,0.079,0.29,0.271c0.196,0.182,0.408,0.501,0.694,0.905
							c0.559,0.816,1.287,2.043,2.138,3.584c1.702,3.082,3.904,7.416,6.234,12.25c2.334,4.835,4.367,9.248,5.801,12.459
							c0.715,1.607,1.285,2.91,1.664,3.818c0.38,0.907,0.576,1.415,0.545,1.429c-0.031,0.014-0.285-0.468-0.719-1.35
							c-0.463-0.963-1.071-2.227-1.805-3.752c-1.553-3.245-3.63-7.589-5.928-12.391c-2.328-4.831-4.479-9.183-6.098-12.3
							c-0.809-1.558-1.489-2.806-1.992-3.645C395.407,240.545,395.039,240.157,395.072,240.119z"/>
					</g>
				</g>
			</g>
		</g>
		<g>
			<g>
				<g>
					<g>
						<g>
							<g>
								<path style="fill:#FF725E;" d="M470.502,255.588c-0.718-7.324-4.15-14.227-8.962-19.794
									c-4.714-5.453-10.914-9.795-17.932-11.443c-7.455-1.75-15.609-0.289-21.99,3.943c-3.796,2.517-6.934,5.993-9.123,9.984
									c-2.028-3.605-4.829-6.775-8.2-9.173c-6.242-4.438-14.343-6.165-21.85-4.657c-7.069,1.419-13.407,5.556-18.296,10.853
									c-4.99,5.407-8.646,12.195-9.602,19.491c-1.197,9.139,0.41,19.19,5.03,27.165c4.879,8.423,12.872,15.291,21.125,20.449
									c13.879,8.672,32.162,19.546,32.162,19.546s15.79-11.412,29.945-19.627c8.418-4.887,16.63-11.49,21.78-19.748
									C469.466,274.755,471.4,264.761,470.502,255.588z"/>
							</g>
						</g>
					</g>
				</g>
			</g>
			<g>
				<g>
					<path style="fill:#FFBF9D;" d="M403.749,315.583l-5.858-3.563c0,0-5.981-3.944-6.347-4.552
						c-0.366-0.608-0.737-2.209-0.747-3.08c-0.01-0.87,2.698-2.809,2.995-4.489c0.297-1.68-1.48-3.295-2.12-3.575
						c-0.64-0.28-1.297,0.707-1.437,1.441c-0.14,0.734-1.217,1.808-2.902,2.188c-1.685,0.379-4.008,2.568-4.008,2.568l-5.064,9.536
						c0.865,1.632,11.251,5.514,11.567,5.704c0.316,0.19,11.39,0.395,12.498-0.015C403.433,317.336,403.81,316.911,403.749,315.583z
						"/>
				</g>
			</g>
			<g>
				<g>
					<g>
						<g>
							<path style="fill:#FFBF9D;" d="M463.882,290.771c-0.04,1.593-3.208,1.29-3.208,1.29c0.323,0.81-1.438,2.582-2.529,2.099
								c0.256,0.578,0.545,0.785,0.455,1.411c-0.09,0.625-0.449,1.231-1.013,1.516c-0.564,0.285-1.328,0.183-1.725-0.308
								c0.174,0.958-0.317,2.001-1.166,2.477c-0.511,0.286-1.129,0.355-1.697,0.223c-0.286-0.066-0.553-0.184-0.798-0.345
								c-0.087-0.058-0.2-0.116-0.262-0.203c-0.031-0.043-0.046-0.09-0.058-0.141c-0.057-0.23-0.074-0.465-0.147-0.693
								c-0.027-0.086-0.059-0.171-0.092-0.255c-0.155-0.381-0.372-0.734-0.626-1.057c-0.116-0.148-0.276-0.284-0.369-0.448
								c-0.063-0.111-0.068-0.242-0.11-0.361c-0.268-0.755-0.908-1.357-1.45-1.92c-0.612-0.635-1.23-1.335-1.393-2.201
								c-0.163-0.866,0.332-1.915,1.206-2.028c-0.451-0.334-0.512-1.044-0.204-1.512c0.308-0.469,0.899-0.699,1.46-0.677
								c0.56,0.022,1.091,0.265,1.559,0.575c-0.47-0.462-0.367-1.316,0.115-1.764c0.482-0.448,1.224-0.529,1.858-0.348
								c0.633,0.182,1.177,0.588,1.672,1.022c0.495,0.434,2.573,2.225,3.127,2.582l1.438-1.196l0.185-0.152
								c1.118,0.451,1.473,0.531,2.433,0.991C463.26,289.694,463.899,290.109,463.882,290.771z"/>
						</g>
					</g>
					<g>
						<g>
							<g>
								<path style="fill:#FFBF9D;" d="M450.848,301.047c-0.39,0.379-0.904,0.692-1.445,0.635c-0.641-0.068-1.986-1.388-2.38-1.897
									c-0.015-0.014,2.056-1.475,2.056-1.475l0,0c0.092-0.416-0.467-0.697-0.634-1.09c-0.288-0.68,0.147-1.533,0.833-1.807
									c0.686-0.274,1.511-0.027,2.032,0.497c0.521,0.524,0.764,1.277,0.791,2.016
									C452.143,299.079,451.676,300.242,450.848,301.047z"/>
							</g>
						</g>
					</g>
					<g>
						<g>
							<g>
								<g>
									<path style="fill:#FF9A6C;" d="M456.016,296.934c0.1-0.1-1.412-1.771-3.376-3.733c-1.965-1.962-3.638-3.471-3.738-3.371
										c-0.1,0.1,1.412,1.771,3.376,3.733C454.242,295.525,455.916,297.034,456.016,296.934z"/>
								</g>
							</g>
						</g>
					</g>
					<g>
						<g>
							<g>
								<g>
									<path style="fill:#FF9A6C;" d="M458.263,294.259c0.104-0.086-1.135-1.731-2.991-3.454c-1.851-1.729-3.58-2.849-3.658-2.738
										c-0.088,0.118,1.484,1.406,3.31,3.112C456.754,292.879,458.151,294.355,458.263,294.259z"/>
								</g>
							</g>
						</g>
					</g>
				</g>
				<g>
					<g>
						<g>
							<g>
								<path style="fill:#FF9A6C;" d="M460.461,291.647c0.107-0.096-0.993-1.402-2.576-2.758c-1.58-1.355-2.92-2.363-3.011-2.264
									c-0.1,0.109,1.104,1.302,2.675,2.65C459.12,290.62,460.359,291.742,460.461,291.647z"/>
							</g>
						</g>
					</g>
				</g>
				<g>
					<g>
						<g>
							<g>
								<path style="fill:#FF9A6C;" d="M451.417,300.057c0.038,0.048,0.363-0.137,0.59-0.663c0.233-0.511,0.266-1.352-0.059-2.13
									c-0.333-0.78-0.728-1.352-1.135-1.769c-0.464-0.421-0.922-0.252-0.876-0.185c0.009,0.069,0.335,0.065,0.615,0.436
									c0.257,0.375,0.639,1.028,0.92,1.704c0.285,0.693,0.304,1.363,0.192,1.83C451.558,299.749,451.36,300.004,451.417,300.057z"
									/>
							</g>
						</g>
					</g>
				</g>
			</g>
		</g>
	</g>
</g>
<g id="Character_1">
	<g>
		<g>
			<path style="fill:#FF725E;" d="M88.325,207.615c0.512-0.121,14.151,6.667,13.299,6.683c-0.853,0.016-12.097,9.223-12.097,9.223
				L88.325,207.615z"/>
		</g>
		<g>
			<g>
				<g>
					<g>
						<g>
							<g>
								<g>
									<g>
										<g>
											<g>
												<g>
													<g>
														<g>
															<g>
																<g>
																	<g>
																		<g>
																			<g>
																				<g>
																					<g>
																						<g>
																							<g>
																								<path style="fill:#455A64;" d="M90.786,413.98l1.584,16.502c0,0-17.987,6.72-18.182,10.044l34.006,0.092
																									l-0.019-2.487l-1.426-8.489l-2.102-16.49L90.786,413.98z"/>
																							</g>
																						</g>
																					</g>
																				</g>
																			</g>
																		</g>
																	</g>
																</g>
															</g>
														</g>
													</g>
												</g>
											</g>
										</g>
									</g>
								</g>
							</g>
						</g>
					</g>
				</g>
				<g>
					<g>
						<g>
							<g>
								<g>
									<g>
										<g>
											<g>
												<g>
													<g>
														<g>
															<g>
																<g>
																	<g>
																		<g>
																			<g>
																				<g>
																					<g>
																						<g>
																							<g>
																								<g>
																									<path style="fill:#E0E0E0;" d="M102.607,427.922c0.674,0.183,1.141,0.939,0.987,1.62
																										c-0.155,0.681-0.92,1.163-1.597,0.992c-0.677-0.17-1.266-1.061-1.036-1.72
																										c0.23-0.659,1.159-1.176,1.775-0.848"/>
																								</g>
																							</g>
																						</g>
																					</g>
																				</g>
																			</g>
																		</g>
																	</g>
																</g>
															</g>
														</g>
													</g>
												</g>
											</g>
										</g>
									</g>
								</g>
							</g>
						</g>
					</g>
				</g>
				<g>
					<g>
						<g>
							<g>
								<g>
									<g>
										<g>
											<g>
												<g>
													<g>
														<g>
															<g>
																<g>
																	<g>
																		<g>
																			<g>
																				<g>
																					<g>
																						<g>
																							<g>
																								<path style="fill:#263238;" d="M108.194,440.62l-0.019-2.487l-32.617,0.626c0,0-1.548,0.678-1.37,1.769
																									L108.194,440.62z"/>
																							</g>
																						</g>
																					</g>
																				</g>
																			</g>
																		</g>
																	</g>
																</g>
															</g>
														</g>
													</g>
												</g>
											</g>
										</g>
									</g>
								</g>
							</g>
						</g>
					</g>
				</g>
				<g>
					<g>
						<g>
							<g>
								<g>
									<g>
										<g>
											<g>
												<g>
													<g>
														<g>
															<g>
																<g>
																	<g>
																		<g>
																			<g>
																				<g>
																					<g>
																						<g>
																							<g>
																								<g>
																									<path style="fill:#263238;" d="M91.806,430.307c0.006,0.17,0.856,0.245,1.693,0.789
																										c0.852,0.522,1.285,1.258,1.441,1.19c0.157-0.033-0.099-1.049-1.125-1.69
																										C92.796,429.946,91.769,430.151,91.806,430.307z"/>
																								</g>
																							</g>
																						</g>
																					</g>
																				</g>
																			</g>
																		</g>
																	</g>
																</g>
															</g>
														</g>
													</g>
												</g>
											</g>
										</g>
									</g>
								</g>
							</g>
						</g>
					</g>
				</g>
				<g>
					<g>
						<g>
							<g>
								<g>
									<g>
										<g>
											<g>
												<g>
													<g>
														<g>
															<g>
																<g>
																	<g>
																		<g>
																			<g>
																				<g>
																					<g>
																						<g>
																							<g>
																								<g>
																									<path style="fill:#263238;" d="M88.16,431.826c-0.039,0.165,0.698,0.452,1.277,1.169
																										c0.6,0.7,0.748,1.477,0.917,1.469c0.16,0.027,0.275-0.969-0.462-1.847
																										C89.163,431.733,88.163,431.664,88.16,431.826z"/>
																								</g>
																							</g>
																						</g>
																					</g>
																				</g>
																			</g>
																		</g>
																	</g>
																</g>
															</g>
														</g>
													</g>
												</g>
											</g>
										</g>
									</g>
								</g>
							</g>
						</g>
					</g>
				</g>
				<g>
					<g>
						<g>
							<g>
								<g>
									<g>
										<g>
											<g>
												<g>
													<g>
														<g>
															<g>
																<g>
																	<g>
																		<g>
																			<g>
																				<g>
																					<g>
																						<g>
																							<g>
																								<g>
																									<path style="fill:#263238;" d="M86.097,436.2c0.154,0.036,0.389-0.814-0.05-1.743
																										c-0.433-0.933-1.235-1.298-1.306-1.156c-0.096,0.14,0.422,0.638,0.77,1.407
																										C85.878,435.467,85.929,436.184,86.097,436.2z"/>
																								</g>
																							</g>
																						</g>
																					</g>
																				</g>
																			</g>
																		</g>
																	</g>
																</g>
															</g>
														</g>
													</g>
												</g>
											</g>
										</g>
									</g>
								</g>
							</g>
						</g>
					</g>
				</g>
				<g>
					<g>
						<g>
							<g>
								<g>
									<g>
										<g>
											<g>
												<g>
													<g>
														<g>
															<g>
																<g>
																	<g>
																		<g>
																			<g>
																				<g>
																					<g>
																						<g>
																							<g>
																								<g>
																									<path style="fill:#263238;" d="M90.6,426.339c0.072,0.155,0.851-0.082,1.811-0.019
																										c0.962,0.043,1.71,0.364,1.798,0.218c0.098-0.123-0.633-0.75-1.766-0.809
																										C91.312,425.663,90.516,426.206,90.6,426.339z"/>
																								</g>
																							</g>
																						</g>
																					</g>
																				</g>
																			</g>
																		</g>
																	</g>
																</g>
															</g>
														</g>
													</g>
												</g>
											</g>
										</g>
									</g>
								</g>
							</g>
						</g>
					</g>
				</g>
			</g>
		</g>
		<g>
			<g>
				<g>
					<g>
						<g>
							<g>
								<g>
									<g>
										<g>
											<g>
												<g>
													<g>
														<g>
															<g>
																<g>
																	<g>
																		<g>
																			<g>
																				<g>
																					<g>
																						<g>
																							<g>
																								<path style="fill:#455A64;" d="M132.575,414.447l1.457,16.221c0,0-17.711,6.493-17.923,9.758l33.407,0.296
																									l-0.004-2.443l-1.35-8.349l-1.966-16.212L132.575,414.447z"/>
																							</g>
																						</g>
																					</g>
																				</g>
																			</g>
																		</g>
																	</g>
																</g>
															</g>
														</g>
													</g>
												</g>
											</g>
										</g>
									</g>
								</g>
							</g>
						</g>
					</g>
				</g>
				<g>
					<g>
						<g>
							<g>
								<g>
									<g>
										<g>
											<g>
												<g>
													<g>
														<g>
															<g>
																<g>
																	<g>
																		<g>
																			<g>
																				<g>
																					<g>
																						<g>
																							<g>
																								<g>
																									<path style="fill:#E0E0E0;" d="M144.103,428.215c0.661,0.183,1.116,0.929,0.96,1.597
																										c-0.156,0.668-0.91,1.137-1.574,0.965c-0.664-0.171-1.237-1.05-1.007-1.696
																										c0.23-0.646,1.146-1.148,1.749-0.822"/>
																								</g>
																							</g>
																						</g>
																					</g>
																				</g>
																			</g>
																		</g>
																	</g>
																</g>
															</g>
														</g>
													</g>
												</g>
											</g>
										</g>
									</g>
								</g>
							</g>
						</g>
					</g>
				</g>
				<g>
					<g>
						<g>
							<g>
								<g>
									<g>
										<g>
											<g>
												<g>
													<g>
														<g>
															<g>
																<g>
																	<g>
																		<g>
																			<g>
																				<g>
																					<g>
																						<g>
																							<g>
																								<path style="fill:#263238;" d="M149.515,440.722l-0.004-2.443l-32.047,0.418c0,0-1.524,0.657-1.356,1.729
																									L149.515,440.722z"/>
																							</g>
																						</g>
																					</g>
																				</g>
																			</g>
																		</g>
																	</g>
																</g>
															</g>
														</g>
													</g>
												</g>
											</g>
										</g>
									</g>
								</g>
							</g>
						</g>
					</g>
				</g>
				<g>
					<g>
						<g>
							<g>
								<g>
									<g>
										<g>
											<g>
												<g>
													<g>
														<g>
															<g>
																<g>
																	<g>
																		<g>
																			<g>
																				<g>
																					<g>
																						<g>
																							<g>
																								<g>
																									<path style="fill:#263238;" d="M133.479,430.493c0.005,0.167,0.839,0.246,1.658,0.785
																										c0.834,0.518,1.255,1.243,1.409,1.177c0.154-0.032-0.091-1.031-1.095-1.667
																										C134.453,430.144,133.443,430.339,133.479,430.493z"/>
																								</g>
																							</g>
																						</g>
																					</g>
																				</g>
																			</g>
																		</g>
																	</g>
																</g>
															</g>
														</g>
													</g>
												</g>
											</g>
										</g>
									</g>
								</g>
							</g>
						</g>
					</g>
				</g>
				<g>
					<g>
						<g>
							<g>
								<g>
									<g>
										<g>
											<g>
												<g>
													<g>
														<g>
															<g>
																<g>
																	<g>
																		<g>
																			<g>
																				<g>
																					<g>
																						<g>
																							<g>
																								<g>
																									<path style="fill:#263238;" d="M129.887,431.963c-0.039,0.162,0.683,0.448,1.248,1.156
																										c0.585,0.692,0.726,1.456,0.892,1.449c0.157,0.027,0.276-0.951-0.443-1.818
																										C130.873,431.877,129.891,431.804,129.887,431.963z"/>
																								</g>
																							</g>
																						</g>
																					</g>
																				</g>
																			</g>
																		</g>
																	</g>
																</g>
															</g>
														</g>
													</g>
												</g>
											</g>
										</g>
									</g>
								</g>
							</g>
						</g>
					</g>
				</g>
				<g>
					<g>
						<g>
							<g>
								<g>
									<g>
										<g>
											<g>
												<g>
													<g>
														<g>
															<g>
																<g>
																	<g>
																		<g>
																			<g>
																				<g>
																					<g>
																						<g>
																							<g>
																								<g>
																									<path style="fill:#263238;" d="M127.835,436.247c0.152,0.036,0.387-0.797-0.038-1.713
																										c-0.419-0.919-1.205-1.283-1.276-1.144c-0.095,0.137,0.41,0.629,0.748,1.387
																										C127.624,435.526,127.669,436.23,127.835,436.247z"/>
																								</g>
																							</g>
																						</g>
																					</g>
																				</g>
																			</g>
																		</g>
																	</g>
																</g>
															</g>
														</g>
													</g>
												</g>
											</g>
										</g>
									</g>
								</g>
							</g>
						</g>
					</g>
				</g>
				<g>
					<g>
						<g>
							<g>
								<g>
									<g>
										<g>
											<g>
												<g>
													<g>
														<g>
															<g>
																<g>
																	<g>
																		<g>
																			<g>
																				<g>
																					<g>
																						<g>
																							<g>
																								<g>
																									<path style="fill:#263238;" d="M132.317,426.587c0.069,0.152,0.836-0.075,1.78-0.008
																										c0.945,0.048,1.678,0.368,1.765,0.225c0.097-0.12-0.618-0.741-1.73-0.805
																										C133.021,425.927,132.236,426.456,132.317,426.587z"/>
																								</g>
																							</g>
																						</g>
																					</g>
																				</g>
																			</g>
																		</g>
																	</g>
																</g>
															</g>
														</g>
													</g>
												</g>
											</g>
										</g>
									</g>
								</g>
							</g>
						</g>
					</g>
				</g>
			</g>
		</g>
		<g>
			<g>
				<g>
					<g>
						<g>
							<g>
								<path style="fill:#263238;" d="M90.051,270.466c0,0-8.06,23.344-8.338,40.71c-0.278,17.366-0.556,44.98,3.057,75.442
									c3.613,30.461,5.281,42.703,5.281,42.703h18.344c0,0,1.946-19.074,1.668-36.155c-0.278-17.081-1.613-22.49,0.027-41.279
									c1.64-18.789,4.236-30.075,6.969-35.769c0,0,7.572-9,8.128-21.348c0.556-12.347-3.814-22.958-3.814-22.958L90.051,270.466z"
									/>
							</g>
						</g>
					</g>
				</g>
			</g>
			<g>
				<g>
					<g>
						<g>
							<g>
								<path style="fill:#263238;" d="M106.352,303.216c0.305,0.938,5.749,39.21,9.72,56.091
									c3.971,16.881,8.389,21.349,9.164,35.081c0.891,15.794,5.228,34.932,5.228,34.932h19.533c0,0-2.747-29.194-5.494-52.015
									c-2.747-22.821-6.715-50.956-6.104-59.396c0.61-8.44,2.136-18.864,0-30.69c-2.137-11.826-6.755-14.943-6.755-14.943
									l-16.572-0.75L106.352,303.216z"/>
							</g>
						</g>
					</g>
				</g>
			</g>
			<g>
				<g>
					<g>
						<g>
							<g>
								<g>
									<path style="fill:#455A64;" d="M124.738,281.326c0.013-0.007,0.116,0.197,0.303,0.594c0.212,0.387,0.41,1.002,0.663,1.797
										c0.452,1.605,0.751,4.022,0.644,6.995c-0.095,2.972-0.59,6.5-1.606,10.299c-0.517,1.896-1.191,3.862-2.132,5.794
										c-0.937,1.938-2.236,3.761-3.529,5.6c-2.655,3.658-3.966,7.823-4.959,11.585c-0.966,3.786-1.484,7.278-1.854,10.212
										c-0.361,2.938-0.577,5.325-0.739,6.974c-0.08,0.795-0.144,1.428-0.191,1.898c-0.048,0.434-0.079,0.661-0.093,0.66
										s-0.01-0.23,0.011-0.666c0.028-0.472,0.066-1.107,0.114-1.905c0.113-1.654,0.286-4.046,0.61-6.995
										c0.335-2.946,0.824-6.455,1.776-10.271c0.477-1.906,1.075-3.886,1.848-5.884c0.395-0.998,0.841-1.998,1.363-2.977
										c0.527-0.977,1.132-1.929,1.776-2.863c1.304-1.855,2.58-3.64,3.507-5.546c0.931-1.901,1.605-3.838,2.127-5.717
										c1.028-3.763,1.551-7.264,1.68-10.211c0.143-2.949-0.109-5.344-0.509-6.944c-0.227-0.792-0.399-1.41-0.584-1.804
										C124.804,281.548,124.726,281.332,124.738,281.326z"/>
								</g>
							</g>
						</g>
					</g>
				</g>
			</g>
		</g>
		<g>
			<g>
				<path style="fill:#263238;" d="M141.515,160.893c0,0-1.211-0.388-4.223-1.06c-3.012-0.672-6.499-4.037-12.491-3.989
					c-4.05,0.032-8.26,1.353-11.174,4.135c-3.115,2.974-4.063,7.486-4.643,11.729c-0.432,3.163-0.769,6.425-2.25,9.261
					c-1.299,2.487-3.385,4.465-5.191,6.621c-1.806,2.156-3.41,4.702-3.423,7.501c-0.008,1.905,0.685,3.999-0.361,5.599
					c-0.684,1.046-1.763,2.688-2.68,3.541c-0.917,0.853-1.131,3.671-0.854,5.921c0.103,0.835-1.448,7.835,9.53,11.484
					C114.734,225.286,141.515,160.893,141.515,160.893z"/>
			</g>
			<g>
				<path style="fill:#AE7461;" d="M142.947,171.098l0.523-2.939l-17.173-6.162c-5.368-1.439-12.135,3.1-13.344,8.524
					c-1.344,6.026-2.748,13.437-2.744,18.092c0.009,9.361,6.825,11.628,6.825,11.628l-1.393,9.071l20.156,3.442L142.947,171.098z"/>
			</g>
			<g>
				<path style="fill:#263238;" d="M115.477,179.147c-0.119,0.615,0.303,1.223,0.943,1.36c0.639,0.136,1.254-0.25,1.374-0.865
					c0.119-0.615-0.302-1.224-0.941-1.36C116.213,178.145,115.597,178.532,115.477,179.147z"/>
			</g>
			<g>
				<path style="fill:#263238;" d="M114.272,174.706c0.121,0.176,1.112-0.341,2.372-0.139c1.261,0.184,2.084,0.978,2.245,0.845
					c0.078-0.057-0.026-0.356-0.383-0.713c-0.351-0.354-0.982-0.745-1.768-0.866c-0.785-0.12-1.492,0.065-1.918,0.301
					C114.385,174.37,114.211,174.626,114.272,174.706z"/>
			</g>
			<g>
				<path style="fill:#263238;" d="M127.065,180.717c-0.12,0.615,0.303,1.223,0.943,1.36c0.639,0.136,1.254-0.25,1.374-0.865
					c0.12-0.615-0.303-1.224-0.941-1.36C127.8,179.714,127.184,180.102,127.065,180.717z"/>
			</g>
			<g>
				<path style="fill:#263238;" d="M126.623,176.896c0.121,0.175,1.113-0.341,2.372-0.139c1.261,0.184,2.084,0.978,2.245,0.845
					c0.077-0.058-0.025-0.356-0.383-0.713c-0.35-0.355-0.981-0.745-1.767-0.866c-0.786-0.12-1.492,0.065-1.918,0.301
					C126.738,176.561,126.562,176.817,126.623,176.896z"/>
			</g>
			<g>
				<path style="fill:#263238;" d="M120.573,185.52c0.017-0.071-0.745-0.329-1.989-0.692c-0.317-0.084-0.611-0.196-0.631-0.424
					c-0.039-0.245,0.15-0.57,0.366-0.92c0.425-0.731,0.871-1.497,1.339-2.3c1.872-3.28,3.282-5.998,3.149-6.072
					c-0.133-0.074-1.758,2.524-3.631,5.805c-0.454,0.81-0.888,1.582-1.301,2.321c-0.18,0.347-0.455,0.728-0.367,1.237
					c0.049,0.254,0.257,0.466,0.455,0.554c0.196,0.095,0.377,0.127,0.534,0.162C119.766,185.461,120.557,185.591,120.573,185.52z"/>
			</g>
			<g>
				<path style="fill:#6F4439;" d="M117.034,200.266c0,0,6.396,1.396,13.06-1.301c0,0-4.094,5.907-13.414,3.579L117.034,200.266z"/>
			</g>
			<g>
				<path style="fill:#263238;" d="M127.338,172.549c0.092,0.357,1.376,0.316,2.848,0.64c1.479,0.295,2.638,0.847,2.866,0.556
					c0.103-0.14-0.075-0.484-0.529-0.866c-0.449-0.381-1.187-0.772-2.072-0.958c-0.885-0.184-1.718-0.121-2.282,0.047
					C127.602,172.135,127.301,172.38,127.338,172.549z"/>
			</g>
			<g>
				<path style="fill:#263238;" d="M114.882,171.596c0.174,0.322,1.09,0.17,2.135,0.331c1.05,0.123,1.893,0.513,2.147,0.248
					c0.113-0.131,0.022-0.44-0.319-0.775c-0.335-0.333-0.934-0.66-1.654-0.757c-0.72-0.097-1.384,0.058-1.796,0.291
					C114.978,171.166,114.807,171.44,114.882,171.596z"/>
			</g>
			<g>
				<path style="fill:#6F4439;" d="M121.194,188.684c0.477-0.573,1.279-0.863,2.057-0.742c0.539,0.084,1.075,0.37,1.384,0.827
					c0.309,0.457,0.349,1.087,0.03,1.494c-0.359,0.458-1.069,0.535-1.657,0.338c-0.589-0.197-1.083-0.613-1.553-1.027
					c-0.13-0.115-0.262-0.234-0.34-0.386c-0.077-0.152-0.086-0.347,0.023-0.465"/>
			</g>
			<g>
				<path style="fill:#263238;" d="M124.441,186.684c-0.203-0.021-0.268,1.334-1.474,2.243c-1.203,0.912-2.642,0.692-2.661,0.882
					c-0.023,0.084,0.31,0.278,0.919,0.323c0.597,0.048,1.48-0.103,2.218-0.659c0.735-0.557,1.077-1.331,1.149-1.885
					C124.67,187.023,124.534,186.68,124.441,186.684z"/>
			</g>
			<g>
				<path style="fill:#263238;" d="M140.092,162.569c-0.548-0.881-5.119-3.419-6.134-3.7c0,0-3.809-2.767-10.176-2.347
					c-13.061,0.861-11.618,13.378-11.618,13.378l8.041,0.44c1.506,0.731,6.264,0.139,7.809-0.509
					c1.546-0.648,2.773-1.983,3.267-3.553c-0.388,1.475,2.725,7.173,3.563,8.456c1.855,2.84,2.755,2.249,4.61,5.089
					c0.719-4.507,2.061-9.67,0.874-14.309C140.078,164.538,140.628,163.43,140.092,162.569z"/>
			</g>
		</g>
		<g>
			<g>
				<path style="fill:#455A64;" d="M29.327,131.868l60.608-13.929l4.097,17.826l-20.501,4.712l24.582,106.956l-19.608,4.507
					L53.923,144.983l-20.499,4.711L29.327,131.868z"/>
			</g>
			<g>
				<g>
					<path style="fill:#AE7461;" d="M74.477,199.475c0,0,0.088-0.623,0.227-1.615l0.116-0.029l-0.07-0.303
						c0.476-3.414,1.427-10.36,1.642-12.862c0.078-0.911,0.367-2.525,0.677-3.322c0.812-2.087-1.006-2.299-2.257-1.113
						c-0.354,0.335-1.058,1.843-1.251,2.48c-0.59,1.946-1.534,2.956-1.534,2.956s-11.709-7.317-12.673-6.099
						c-0.964,1.218,0.194,3.983,0.194,3.983s-1.456,2.062-1.003,4.049c0.453,1.987,1.866,3.15,1.866,3.15s-0.777,2.589-0.069,3.727
						c0.512,0.821,5.443,6.249,6.86,7.6L74.477,199.475z"/>
				</g>
			</g>
			<g>
				<g>
					<g>
						<g>
							<path style="fill:#FF725E;" d="M75.051,198.735c-0.015,0.324,9.193,23.65,9.193,23.65s12.663-7.649,17.91-11.01
								c5.247-3.361,12.681-7.098,17.59-6.444s10.04,5.953,10.04,5.953L115.52,224.19l-15.371,9.95c0,0-16.112,9.461-22.086,9.577
								c-5.974,0.116-7.849-5.676-9.165-8.817c-1.316-3.142-5.407-32.916-5.407-32.916L75.051,198.735z"/>
						</g>
					</g>
					<g>
						<g>
							<path style="fill:#FF725E;" d="M143.118,208.759l-30.649-1.144c0,0-16.825,9.891-17.505,27.39
								c-0.706,18.193-5.438,35.775-5.438,35.775l30.866,3.803c3.214,0.396,6.467,0.351,9.668-0.133l3.216-0.486l-3.063-11.586
								c3.359-11.512,6.375-16.758,9.962-27.512C145.671,218.393,143.118,208.759,143.118,208.759z"/>
						</g>
					</g>
				</g>
				<g>
					<g>
						<g>
							<g>
								<g>
									<g>
										<path style="fill:#263238;" d="M130.125,263.561c0.012,0.048-0.778,0.316-2.096,0.603
											c-1.317,0.287-3.166,0.567-5.225,0.648c-2.06,0.078-3.926-0.058-5.261-0.244c-1.336-0.184-2.145-0.391-2.136-0.44
											c0.01-0.061,0.834,0.045,2.167,0.154c1.332,0.111,3.178,0.2,5.214,0.123c2.036-0.08,3.868-0.311,5.188-0.524
											C129.297,263.67,130.11,263.501,130.125,263.561z"/>
									</g>
								</g>
							</g>
						</g>
					</g>
				</g>
				<g>
					<g>
						<path d="M113.768,227.222c0.035,0.061-0.987,0.731-2.685,1.738c-1.697,1.007-4.075,2.343-6.744,3.738
							c-2.671,1.394-5.126,2.582-6.922,3.399c-1.796,0.818-2.93,1.273-2.96,1.21c-0.031-0.067,1.047-0.64,2.799-1.541
							c1.889-0.975,4.241-2.188,6.842-3.53c2.587-1.368,4.926-2.604,6.805-3.598C112.645,227.715,113.731,227.158,113.768,227.222z"
							/>
					</g>
				</g>
			</g>
		</g>
		<g>
			<path style="fill:#263238;" d="M129.402,229.87c-1.338-2.292,2.36-11.244,0.692-16.698c-1.668-5.454-1.914-6.828,0.114-12.629
				c2.028-5.801,5.77-6.849,6.494-13.859c0.724-7.011,0.704-7.567,2.282-12.888c1.579-5.321-4.155-14.568-4.155-14.568
				c5.833-0.383,12.605,3.912,14.417,9.47c1.127,3.457,0.908,9.838,1.608,13.406c1.145,5.834,6.469,8.219,5.598,14.101
				c-0.581,3.921-3.271,7.509-2.858,11.451c0.174,1.659-0.519,5.275-0.514,6.943c0.033,9.773-4.815,10.925-4.911,12.59
				c0,0,0.19,2.693,2.88,2.682C153.739,229.859,138.2,244.943,129.402,229.87z"/>
		</g>
		<g>
			<path style="fill:#263238;" d="M134.858,194.223l-15.046,10.784c7.921,1.191,11.13,9.29,11.13,9.29
				S141.141,190.074,134.858,194.223z"/>
		</g>
	</g>
</g>
</svg>
